<svg width="242" height="36" viewBox="0 0 242 36" fill="none" xmlns="http://www.w3.org/2000/svg">
<path d="M4.972 35.236C4.132 35.236 3.34 35.14 2.596 34.948C1.828 34.78 1.18 34.504 0.652 34.12L1.948 30.772C2.644 31.276 3.52 31.528 4.576 31.528C5.392 31.528 6.028 31.264 6.484 30.736C6.94 30.232 7.168 29.476 7.168 28.468V8.776H11.668V28.36C11.668 30.472 11.08 32.14 9.904 33.364C8.752 34.612 7.108 35.236 4.972 35.236ZM9.4 5.608C8.56 5.608 7.864 5.344 7.312 4.816C6.784 4.288 6.52 3.652 6.52 2.908C6.52 2.14 6.784 1.504 7.312 0.999998C7.864 0.471999 8.56 0.207999 9.4 0.207999C10.24 0.207999 10.924 0.459999 11.452 0.963998C12.004 1.444 12.28 2.056 12.28 2.8C12.28 3.592 12.016 4.264 11.488 4.816C10.96 5.344 10.264 5.608 9.4 5.608ZM26.2092 28.252C24.2412 28.252 22.4892 27.832 20.9532 26.992C19.4172 26.128 18.2052 24.952 17.3172 23.464C16.4292 21.976 15.9852 20.284 15.9852 18.388C15.9852 16.468 16.4292 14.776 17.3172 13.312C18.2052 11.824 19.4172 10.66 20.9532 9.82C22.4892 8.98 24.2412 8.56 26.2092 8.56C28.2012 8.56 29.9652 8.98 31.5012 9.82C33.0612 10.66 34.2732 11.812 35.1372 13.276C36.0252 14.74 36.4692 16.444 36.4692 18.388C36.4692 20.284 36.0252 21.976 35.1372 23.464C34.2732 24.952 33.0612 26.128 31.5012 26.992C29.9652 27.832 28.2012 28.252 26.2092 28.252ZM26.2092 24.4C27.3132 24.4 28.2972 24.16 29.1612 23.68C30.0252 23.2 30.6972 22.504 31.1772 21.592C31.6812 20.68 31.9332 19.612 31.9332 18.388C31.9332 17.14 31.6812 16.072 31.1772 15.184C30.6972 14.272 30.0252 13.576 29.1612 13.096C28.2972 12.616 27.3252 12.376 26.2452 12.376C25.1412 12.376 24.1572 12.616 23.2932 13.096C22.4532 13.576 21.7812 14.272 21.2772 15.184C20.7732 16.072 20.5212 17.14 20.5212 18.388C20.5212 19.612 20.7732 20.68 21.2772 21.592C21.7812 22.504 22.4532 23.2 23.2932 23.68C24.1572 24.16 25.1292 24.4 26.2092 24.4ZM48.9083 28.252C47.2763 28.252 45.8363 27.952 44.5883 27.352C43.3403 26.728 42.3683 25.792 41.6723 24.544C40.9763 23.272 40.6283 21.676 40.6283 19.756V8.776H45.1283V19.144C45.1283 20.872 45.5123 22.168 46.2803 23.032C47.0723 23.872 48.1883 24.292 49.6283 24.292C50.6843 24.292 51.5963 24.076 52.3643 23.644C53.1563 23.212 53.7683 22.564 54.2003 21.7C54.6563 20.836 54.8843 19.768 54.8843 18.496V8.776H59.3843V28H55.1003V22.816L55.8563 24.4C55.2083 25.648 54.2603 26.608 53.0123 27.28C51.7643 27.928 50.3963 28.252 48.9083 28.252ZM65.2762 28V8.776H69.5602V14.068L69.0562 12.52C69.6322 11.224 70.5322 10.24 71.7562 9.568C73.0042 8.896 74.5522 8.56 76.4002 8.56V12.844C76.2082 12.796 76.0282 12.772 75.8602 12.772C75.6922 12.748 75.5242 12.736 75.3562 12.736C73.6522 12.736 72.2962 13.24 71.2882 14.248C70.2802 15.232 69.7762 16.708 69.7762 18.676V28H65.2762ZM88.1778 28.252C86.3298 28.252 84.6618 27.844 83.1738 27.028C81.7098 26.188 80.5578 25.036 79.7178 23.572C78.8778 22.108 78.4578 20.38 78.4578 18.388C78.4578 16.396 78.8778 14.668 79.7178 13.204C80.5578 11.74 81.7098 10.6 83.1738 9.784C84.6618 8.968 86.3298 8.56 88.1778 8.56C89.7858 8.56 91.2258 8.92 92.4978 9.64C93.7698 10.336 94.7778 11.404 95.5218 12.844C96.2658 14.284 96.6378 16.132 96.6378 18.388C96.6378 20.62 96.2778 22.468 95.5578 23.932C94.8378 25.372 93.8418 26.452 92.5698 27.172C91.2978 27.892 89.8338 28.252 88.1778 28.252ZM88.7178 24.4C89.7978 24.4 90.7578 24.16 91.5978 23.68C92.4618 23.2 93.1458 22.504 93.6498 21.592C94.1778 20.68 94.4418 19.612 94.4418 18.388C94.4418 17.14 94.1778 16.072 93.6498 15.184C93.1458 14.272 92.4618 13.576 91.5978 13.096C90.7578 12.616 89.7978 12.376 88.7178 12.376C87.6378 12.376 86.6658 12.616 85.8018 13.096C84.9618 13.576 84.2778 14.272 83.7498 15.184C83.2458 16.072 82.9938 17.14 82.9938 18.388C82.9938 19.612 83.2458 20.68 83.7498 21.592C84.2778 22.504 84.9618 23.2 85.8018 23.68C86.6658 24.16 87.6378 24.4 88.7178 24.4ZM94.5498 28V23.464L94.7298 18.352L94.3698 13.24V1.288H98.8338V28H94.5498ZM106.341 35.236C105.405 35.236 104.469 35.08 103.533 34.768C102.597 34.456 101.817 34.024 101.193 33.472L102.993 30.16C103.449 30.568 103.965 30.892 104.541 31.132C105.117 31.372 105.705 31.492 106.305 31.492C107.121 31.492 107.781 31.288 108.285 30.88C108.789 30.472 109.257 29.788 109.689 28.828L110.805 26.308L111.165 25.768L118.437 8.776H122.757L113.757 29.548C113.157 30.988 112.485 32.128 111.741 32.968C111.021 33.808 110.205 34.396 109.293 34.732C108.405 35.068 107.421 35.236 106.341 35.236ZM110.301 28.684L101.625 8.776H106.305L113.361 25.372L110.301 28.684ZM133.005 35.128C132.261 35.128 131.541 35.02 130.845 34.804C130.149 34.612 129.573 34.3 129.117 33.868L129.837 32.536C130.629 33.232 131.649 33.58 132.897 33.58C133.977 33.58 134.805 33.256 135.381 32.608C135.981 31.96 136.281 31.024 136.281 29.8V9.208H138.081V29.872C138.081 31.456 137.637 32.728 136.749 33.688C135.885 34.648 134.637 35.128 133.005 35.128ZM137.181 4.636C136.773 4.636 136.425 4.492 136.137 4.204C135.849 3.916 135.705 3.58 135.705 3.196C135.705 2.788 135.849 2.44 136.137 2.152C136.425 1.864 136.773 1.72 137.181 1.72C137.613 1.72 137.961 1.864 138.225 2.152C138.513 2.416 138.657 2.752 138.657 3.16C138.657 3.568 138.513 3.916 138.225 4.204C137.961 4.492 137.613 4.636 137.181 4.636ZM153.296 28.144C151.688 28.144 150.296 27.856 149.12 27.28C147.944 26.68 147.032 25.792 146.384 24.616C145.76 23.416 145.448 21.94 145.448 20.188V9.208H147.248V20.044C147.248 22.156 147.788 23.764 148.868 24.868C149.948 25.972 151.472 26.524 153.44 26.524C154.856 26.524 156.08 26.224 157.112 25.624C158.144 25.024 158.936 24.184 159.488 23.104C160.04 22 160.316 20.704 160.316 19.216V9.208H162.116V28H160.388V22.78L160.64 23.392C160.088 24.856 159.164 26.02 157.868 26.884C156.596 27.724 155.072 28.144 153.296 28.144ZM178.926 9.064C180.462 9.064 181.794 9.364 182.922 9.964C184.074 10.54 184.962 11.428 185.586 12.628C186.234 13.804 186.558 15.268 186.558 17.02V28H184.758V17.164C184.758 15.052 184.218 13.444 183.138 12.34C182.082 11.236 180.594 10.684 178.674 10.684C177.21 10.684 175.938 10.984 174.858 11.584C173.778 12.184 172.95 13.024 172.374 14.104C171.822 15.184 171.546 16.48 171.546 17.992V28H169.746V9.208H171.474V14.428L171.222 13.852C171.798 12.364 172.746 11.2 174.066 10.36C175.386 9.496 177.006 9.064 178.926 9.064ZM193.968 28V9.208H195.768V28H193.968ZM194.868 4.636C194.46 4.636 194.112 4.492 193.824 4.204C193.536 3.916 193.392 3.58 193.392 3.196C193.392 2.788 193.536 2.44 193.824 2.152C194.112 1.864 194.46 1.72 194.868 1.72C195.3 1.72 195.648 1.864 195.912 2.152C196.2 2.416 196.344 2.752 196.344 3.16C196.344 3.568 196.2 3.916 195.912 4.204C195.648 4.492 195.3 4.636 194.868 4.636ZM210.699 28.144C208.899 28.144 207.291 27.736 205.875 26.92C204.483 26.104 203.367 24.976 202.527 23.536C201.711 22.096 201.303 20.452 201.303 18.604C201.303 16.732 201.711 15.088 202.527 13.672C203.367 12.232 204.483 11.104 205.875 10.288C207.291 9.472 208.899 9.064 210.699 9.064C212.499 9.064 214.107 9.472 215.523 10.288C216.939 11.104 218.055 12.232 218.871 13.672C219.687 15.088 220.095 16.732 220.095 18.604C220.095 20.452 219.687 22.096 218.871 23.536C218.055 24.976 216.939 26.104 215.523 26.92C214.107 27.736 212.499 28.144 210.699 28.144ZM210.699 26.524C212.139 26.524 213.435 26.2 214.587 25.552C215.739 24.88 216.639 23.944 217.287 22.744C217.935 21.544 218.259 20.164 218.259 18.604C218.259 17.02 217.935 15.64 217.287 14.464C216.639 13.264 215.739 12.34 214.587 11.692C213.435 11.02 212.139 10.684 210.699 10.684C209.259 10.684 207.963 11.02 206.811 11.692C205.683 12.34 204.783 13.264 204.111 14.464C203.463 15.64 203.139 17.02 203.139 18.604C203.139 20.164 203.463 21.544 204.111 22.744C204.783 23.944 205.683 24.88 206.811 25.552C207.963 26.2 209.259 26.524 210.699 26.524ZM225.679 28V9.208H227.407V14.356L227.227 13.78C227.755 12.268 228.643 11.104 229.891 10.288C231.139 9.472 232.699 9.064 234.571 9.064V10.828C234.499 10.828 234.427 10.828 234.355 10.828C234.283 10.804 234.211 10.792 234.139 10.792C232.051 10.792 230.419 11.452 229.243 12.772C228.067 14.068 227.479 15.88 227.479 18.208V28H225.679Z" fill="white"/>
<path d="M239.847 28.18C239.319 28.18 238.863 27.988 238.479 27.604C238.119 27.22 237.939 26.752 237.939 26.2C237.939 25.624 238.119 25.156 238.479 24.796C238.863 24.436 239.319 24.256 239.847 24.256C240.375 24.256 240.819 24.436 241.179 24.796C241.563 25.156 241.755 25.624 241.755 26.2C241.755 26.752 241.563 27.22 241.179 27.604C240.819 27.988 240.375 28.18 239.847 28.18Z" fill="#FF0000"/>
</svg>
